<?xml version="1.0" encoding="UTF-8"?>
<svg version="1.1" xmlns="http://www.w3.org/2000/svg" width="1000" height="1000">
<path d="M0 0 C1.62388641 -0.00101212 1.62388641 -0.00101212 3.28057861 -0.00204468 C75.85353654 0.0695131 148.00463886 18.83424208 203.17675781 67.96923828 C205.11062884 69.6794688 207.09050861 71.33400727 209.0625 73 C212.2643198 75.81515936 215.04871813 78.86148815 217.796875 82.1171875 C219.04247848 83.57039156 220.32599058 84.99174585 221.640625 86.3828125 C233.04249238 98.48191638 241.99435682 112.53536424 249.625 127.25 C249.94307617 127.85489258 250.26115234 128.45978516 250.58886719 129.08300781 C267.58737753 161.81890601 270.00137279 200.41292796 259.83984375 235.65234375 C257.55990885 242.40417669 254.72674804 248.83911521 251.625 255.25 C251.28839355 255.94915527 250.95178711 256.64831055 250.60498047 257.36865234 C245.32843542 268.17535146 239.10380335 277.84236964 231.625 287.25 C231.18961914 287.80107422 230.75423828 288.35214844 230.30566406 288.91992188 C221.54664917 299.89999623 211.67004378 310.17539257 201 319.3125 C194.94155363 324.43895681 194.94155363 324.43895681 191.875 331.625 C193.72755172 340.57899997 202.64651614 345.83873242 209.43432617 351.25585938 C249.00159452 382.85500425 281.87373115 429.28961577 289 480.4765625 C294.47200345 530.7972306 282.45382609 578.13850052 252.625 619.25 C252.18945801 619.85376465 251.75391602 620.4575293 251.30517578 621.07958984 C246.03577279 628.3181815 240.27093511 635.01921219 234.1484375 641.5390625 C232.05080917 643.79255176 230.0444089 646.08340164 228.0625 648.4375 C223.96873335 653.14097658 219.32886804 657.17065681 214.625 661.25 C213.69171875 662.08273437 212.7584375 662.91546875 211.796875 663.7734375 C192.95000423 680.38470924 171.24338786 693.56072972 148.59667969 704.31152344 C147.29918661 704.92910186 146.00541215 705.55456467 144.71582031 706.18847656 C107.59731193 724.38087272 65.58360129 733.00399018 24.625 736.25 C23.56812988 736.33685059 22.51125977 736.42370117 21.42236328 736.51318359 C8.54246209 737.4510977 -4.34066011 737.49341998 -17.25 737.5 C-19.04062866 737.50101212 -19.04062866 737.50101212 -20.86743164 737.50204468 C-40.53459823 737.48445065 -59.86930983 736.82641461 -79.375 734.25 C-80.64021484 734.08371094 -81.90542969 733.91742187 -83.20898438 733.74609375 C-136.6601539 726.40165824 -191.99809483 706.83277512 -233.375 671.25 C-234.46667322 670.34021544 -235.55919011 669.43144271 -236.65234375 668.5234375 C-273.76711262 637.47560381 -301.3926484 594.82358838 -307.0625 546.125 C-310.19832943 502.68069641 -298.87873808 462.9418848 -272.375 428.25 C-271.71628906 427.36699219 -271.05757813 426.48398437 -270.37890625 425.57421875 C-257.38380294 408.88070397 -241.43048297 395.50035044 -224.26953125 383.3359375 C-223.62274414 382.87703125 -222.97595703 382.418125 -222.30957031 381.9453125 C-221.0991857 381.09166618 -219.88397067 380.24481034 -218.66308594 379.40625 C-215.9146668 377.49373278 -214.2620775 376.08061626 -212.375 373.25 C-211.8064972 369.03791108 -212.62712049 365.46729324 -214.84375 361.859375 C-218.48792689 357.22947813 -222.54574008 352.99243156 -226.5625 348.6875 C-264.68421358 307.70215219 -284.18700659 256.5749358 -282.54345703 200.87304688 C-282.1851239 193.16628804 -281.1293096 185.7558896 -279.375 178.25 C-279.20871094 177.51217285 -279.04242188 176.7743457 -278.87109375 176.01416016 C-276.11375009 164.11417979 -271.72645356 153.20496833 -266.375 142.25 C-265.85679687 141.17685547 -265.85679687 141.17685547 -265.328125 140.08203125 C-251.41413195 111.57911265 -229.36720244 85.65986197 -204.375 66.25 C-203.53122803 65.58363525 -203.53122803 65.58363525 -202.67041016 64.90380859 C-155.26375323 27.56514203 -97.17561458 6.84028044 -37.375 1.25 C-36.39176758 1.1557373 -35.40853516 1.06147461 -34.39550781 0.96435547 C-22.9469074 0.00314075 -11.48198316 0.00644871 0 0 Z M-43.421875 139.703125 C-52.95935989 152.66432241 -56.14871279 167.67005379 -53.91015625 183.546875 C-51.40258469 195.95119346 -45.75622186 205.87728425 -37.375 215.25 C-36.37533203 216.37341797 -36.37533203 216.37341797 -35.35546875 217.51953125 C-22.10868114 231.55277007 -0.23663219 246.46799372 18.875 250.3125 C23.662328 250.2327112 26.78519492 249.08292286 30.625 246.25 C35.52613467 240.44602474 36.77881709 233.89220916 37.2578125 226.4609375 C37.38349609 224.55248047 37.38349609 224.55248047 37.51171875 222.60546875 C37.59035156 221.29191406 37.66898438 219.97835937 37.75 218.625 C37.87955078 216.68947266 37.87955078 216.68947266 38.01171875 214.71484375 C39.70036473 188.09856666 39.92557044 156.93840835 21.8125 135.3125 C13.56329244 126.72756887 3.91695331 120.81216633 -8.0625 120 C-22.32071923 120.24121048 -34.60671415 129.13839024 -43.421875 139.703125 Z M-68.0625 461.375 C-73.46747346 468.09469674 -75.18833686 475.8323562 -76.5625 484.1875 C-76.72685547 485.11240234 -76.89121094 486.03730469 -77.06054688 486.99023438 C-82.83544843 520.35373448 -81.98321873 559.06374952 -62.22998047 587.92285156 C-51.31314586 602.98526197 -35.59945683 612.86585011 -17.375 616.25 C-13.19625703 616.63292053 -9.06880991 616.67188732 -4.875 616.625 C-3.83730469 616.63660156 -2.79960938 616.64820313 -1.73046875 616.66015625 C15.54700307 616.59560779 30.74443028 610.3153341 42.93359375 598.140625 C55.20939229 584.95616794 61.31972477 570.0783507 62 552.125 C61.30954135 535.60922915 54.58067052 521.41806867 43.625 509.25 C43.11839844 508.6621875 42.61179687 508.074375 42.08984375 507.46875 C21.13709703 484.7476129 -24.59484276 459.14376638 -55.375 455.9375 C-60.41571706 456.46257469 -64.10707577 458.24745526 -68.0625 461.375 Z " fill="#FEFEFE" transform="translate(529.375,165.75)"/>
<path d="M0 0 C1.62388641 -0.00101212 1.62388641 -0.00101212 3.28057861 -0.00204468 C75.85353654 0.0695131 148.00463886 18.83424208 203.17675781 67.96923828 C205.11062884 69.6794688 207.09050861 71.33400727 209.0625 73 C212.2643198 75.81515936 215.04871813 78.86148815 217.796875 82.1171875 C219.04247848 83.57039156 220.32599058 84.99174585 221.640625 86.3828125 C233.04249238 98.48191638 241.99435682 112.53536424 249.625 127.25 C249.94307617 127.85489258 250.26115234 128.45978516 250.58886719 129.08300781 C267.58737753 161.81890601 270.00137279 200.41292796 259.83984375 235.65234375 C257.55990885 242.40417669 254.72674804 248.83911521 251.625 255.25 C251.28839355 255.94915527 250.95178711 256.64831055 250.60498047 257.36865234 C245.32843542 268.17535146 239.10380335 277.84236964 231.625 287.25 C231.18961914 287.80107422 230.75423828 288.35214844 230.30566406 288.91992188 C221.54664917 299.89999623 211.67004378 310.17539257 201 319.3125 C194.94155363 324.43895681 194.94155363 324.43895681 191.875 331.625 C193.72755172 340.57899997 202.64651614 345.83873242 209.43432617 351.25585938 C249.00159452 382.85500425 281.87373115 429.28961577 289 480.4765625 C294.47200345 530.7972306 282.45382609 578.13850052 252.625 619.25 C252.18945801 619.85376465 251.75391602 620.4575293 251.30517578 621.07958984 C246.03577279 628.3181815 240.27093511 635.01921219 234.1484375 641.5390625 C232.05080917 643.79255176 230.0444089 646.08340164 228.0625 648.4375 C223.96873335 653.14097658 219.32886804 657.17065681 214.625 661.25 C213.69171875 662.08273437 212.7584375 662.91546875 211.796875 663.7734375 C192.95000423 680.38470924 171.24338786 693.56072972 148.59667969 704.31152344 C147.29918661 704.92910186 146.00541215 705.55456467 144.71582031 706.18847656 C107.59731193 724.38087272 65.58360129 733.00399018 24.625 736.25 C23.56812988 736.33685059 22.51125977 736.42370117 21.42236328 736.51318359 C8.54246209 737.4510977 -4.34066011 737.49341998 -17.25 737.5 C-19.04062866 737.50101212 -19.04062866 737.50101212 -20.86743164 737.50204468 C-40.53459823 737.48445065 -59.86930983 736.82641461 -79.375 734.25 C-80.64021484 734.08371094 -81.90542969 733.91742187 -83.20898438 733.74609375 C-136.6601539 726.40165824 -191.99809483 706.83277512 -233.375 671.25 C-234.46667322 670.34021544 -235.55919011 669.43144271 -236.65234375 668.5234375 C-273.76711262 637.47560381 -301.3926484 594.82358838 -307.0625 546.125 C-310.19832943 502.68069641 -298.87873808 462.9418848 -272.375 428.25 C-271.71628906 427.36699219 -271.05757813 426.48398437 -270.37890625 425.57421875 C-257.38380294 408.88070397 -241.43048297 395.50035044 -224.26953125 383.3359375 C-223.62274414 382.87703125 -222.97595703 382.418125 -222.30957031 381.9453125 C-221.0991857 381.09166618 -219.88397067 380.24481034 -218.66308594 379.40625 C-215.9146668 377.49373278 -214.2620775 376.08061626 -212.375 373.25 C-211.8064972 369.03791108 -212.62712049 365.46729324 -214.84375 361.859375 C-218.48792689 357.22947813 -222.54574008 352.99243156 -226.5625 348.6875 C-264.68421358 307.70215219 -284.18700659 256.5749358 -282.54345703 200.87304688 C-282.1851239 193.16628804 -281.1293096 185.7558896 -279.375 178.25 C-279.20871094 177.51217285 -279.04242188 176.7743457 -278.87109375 176.01416016 C-276.11375009 164.11417979 -271.72645356 153.20496833 -266.375 142.25 C-265.85679687 141.17685547 -265.85679687 141.17685547 -265.328125 140.08203125 C-251.41413195 111.57911265 -229.36720244 85.65986197 -204.375 66.25 C-203.53122803 65.58363525 -203.53122803 65.58363525 -202.67041016 64.90380859 C-155.26375323 27.56514203 -97.17561458 6.84028044 -37.375 1.25 C-36.39176758 1.1557373 -35.40853516 1.06147461 -34.39550781 0.96435547 C-22.9469074 0.00314075 -11.48198316 0.00644871 0 0 Z M-168.375 52.25 C-169.2928125 52.7140625 -170.210625 53.178125 -171.15625 53.65625 C-209.22970108 73.38104996 -244.84991691 106.94100703 -258.12988281 148.61914062 C-270.04961328 189.23332374 -264.48292521 232.15658115 -244.48876953 269.23681641 C-238.58562058 279.90699753 -231.98576834 289.59959733 -223.81347656 298.65576172 C-222.32822571 300.30183913 -220.86349448 301.96484968 -219.3984375 303.62890625 C-213.21854933 310.56690337 -206.70966093 316.5191279 -199.375 322.25 C-198.57320313 322.9409375 -197.77140625 323.631875 -196.9453125 324.34375 C-180.01802389 338.89805422 -159.56542075 350.73877346 -139.00805664 359.34399414 C-132.05251837 362.29444039 -125.31386898 365.67612698 -118.5625 369.0625 C-117.94795959 369.3704953 -117.33341919 369.6784906 -116.70025635 369.99581909 C-110.21782031 373.24980074 -103.76267784 376.54717847 -97.37426758 379.98266602 C-76.8096674 391.0413678 -55.38227291 400.54350557 -34.0234375 409.94824219 C-2.93003593 423.68958001 27.55339851 437.88229376 52.625 461.25 C53.69621094 462.24 53.69621094 462.24 54.7890625 463.25 C70.79372453 478.57492735 79.32462333 499.68041735 79.828125 521.6796875 C80.17786892 554.84075712 73.32826661 583.13409604 50.375 607.9375 C27.62080325 629.36259647 -2.3439268 636.06999345 -32.8359375 635.5 C-56.01572426 634.69262324 -78.66886705 627.61509862 -96.375 612.25 C-97.16003906 611.60804688 -97.94507813 610.96609375 -98.75390625 610.3046875 C-125.19257419 587.87940107 -136.39249185 553.01732567 -139.19189453 519.40673828 C-139.58618015 512.60925423 -139.61978332 505.80697042 -139.625 499 C-139.62567474 498.20487 -139.62634949 497.40973999 -139.62704468 496.59051514 C-139.60917763 483.27906166 -138.8625219 470.35600861 -136.375 457.25 C-136.20871094 456.35780762 -136.04242188 455.46561523 -135.87109375 454.54638672 C-133.53890164 442.43842266 -130.12804875 430.82515196 -126.05395508 419.19165039 C-125.55545044 417.76647095 -125.55545044 417.76647095 -125.046875 416.3125 C-124.7487793 415.47847656 -124.45068359 414.64445312 -124.14355469 413.78515625 C-123.28719525 410.96036705 -122.80498328 408.16751617 -122.375 405.25 C-123.27041504 404.80446777 -124.16583008 404.35893555 -125.08837891 403.89990234 C-136.03648383 398.44376718 -146.94834858 392.91751125 -157.84375 387.35693359 C-159.80549068 386.35661724 -161.7680772 385.35795817 -163.73144531 384.36083984 C-166.60151047 382.90311153 -169.468994 381.44041867 -172.3359375 379.9765625 C-173.21599457 379.53075836 -174.09605164 379.08495422 -175.0027771 378.62564087 C-175.81187531 378.21115692 -176.62097351 377.79667297 -177.45458984 377.36962891 C-178.16577972 377.00737213 -178.8769696 376.64511536 -179.60971069 376.2718811 C-181.375 375.25 -181.375 375.25 -183.375 373.25 C-208.77109837 383.62853109 -231.54145358 395.12378406 -251.375 414.25 C-252.16519531 414.97703125 -252.95539063 415.7040625 -253.76953125 416.453125 C-274.67730746 436.22580303 -287.43598182 466.99078052 -288.49902344 495.58618164 C-289.35677055 536.92482735 -280.33135362 572.81874875 -251.0859375 603.4453125 C-249.74402344 604.83363281 -249.74402344 604.83363281 -248.375 606.25 C-247.15683594 607.54550781 -247.15683594 607.54550781 -245.9140625 608.8671875 C-239.60946042 615.41662849 -232.73793521 620.96283014 -225.375 626.25 C-224.5387207 626.85279785 -224.5387207 626.85279785 -223.68554688 627.46777344 C-175.71712642 661.64045414 -114.97640317 676.23773667 -56.6328125 676.453125 C-55.35831741 676.46013931 -54.08382233 676.46715363 -52.77070618 676.47438049 C-48.6804657 676.49378056 -44.59028185 676.49881406 -40.5 676.5 C-39.80394276 676.50044186 -39.10788551 676.50088371 -38.39073563 676.50133896 C-17.90953082 676.50816174 2.331764 676.34395547 22.625 673.25 C23.83124023 673.07307617 25.03748047 672.89615234 26.28027344 672.71386719 C90.50937018 663.09196628 156.83227223 636.95842745 197.07592773 583.27294922 C223.21087493 547.2963676 234.81873127 504.86624647 227.96704102 460.61523438 C222.40176435 427.56963456 206.97519607 399.09006032 183.625 375.25 C182.87863281 374.45335937 182.13226562 373.65671875 181.36328125 372.8359375 C161.84542935 352.41615159 135.80632977 338.41534685 110.625 326.25 C109.98143555 325.93788574 109.33787109 325.62577148 108.67480469 325.30419922 C95.06323236 318.72924346 95.06323236 318.72924346 80.82348633 313.73120117 C72.44975069 311.23436722 64.82126938 307.00923071 57.0625 303.0625 C55.60119766 302.32430296 54.13961061 301.58666925 52.67773438 300.84960938 C49.74705177 299.37109265 46.81760546 297.89016956 43.88916016 296.40722656 C27.68106272 288.20369558 11.36298025 280.22713343 -4.95556641 272.24609375 C-11.4251466 269.08136615 -17.89257984 265.91234267 -24.35571289 262.73446655 C-26.32641253 261.76554985 -28.29758298 260.79758998 -30.26928711 259.83071899 C-39.85603143 255.12385121 -49.3554162 250.43269316 -58.375 244.6875 C-59.24745361 244.13868164 -60.11990723 243.58986328 -61.01879883 243.02441406 C-86.12907577 227.0640372 -105.84257148 207.44953404 -112.93701172 177.90991211 C-114.65407585 169.71288385 -114.77230855 161.52676749 -114.75 153.1875 C-114.74978851 152.45866608 -114.74957703 151.72983215 -114.74935913 150.97891235 C-114.70284458 134.91508032 -112.5190387 120.83052343 -105.375 106.25 C-104.93414062 105.32960938 -104.49328125 104.40921875 -104.0390625 103.4609375 C-100.37616608 96.27680364 -95.70309947 90.27717635 -90.375 84.25 C-89.83359375 83.61320312 -89.2921875 82.97640625 -88.734375 82.3203125 C-75.71634541 68.05307805 -54.85801265 59.73446872 -35.90625 58.86328125 C-14.74258003 58.32420243 5.63474481 61.26483032 22.125 75.6875 C23.64813413 77.18516366 25.14956635 78.70532218 26.625 80.25 C27.31851562 80.93578125 28.01203125 81.6215625 28.7265625 82.328125 C54.11718084 108.79710937 57.05810619 149.40433151 56.56640625 183.98046875 C55.99670116 207.61801909 53.45866582 231.05349973 48.94458008 254.25830078 C48.54578526 256.40748922 48.54578526 256.40748922 48.625 259.25 C49.29853516 259.57162109 49.97207031 259.89324219 50.66601562 260.22460938 C73.0187701 270.90578244 73.0187701 270.90578244 81.5 275.1875 C82.72377295 275.7985485 83.94774178 276.40920481 85.171875 277.01953125 C87.72986246 278.29545343 90.28018044 279.5844858 92.82617188 280.88427734 C95.84741854 282.42262993 98.87532675 283.94500249 101.91119385 285.45413208 C103.12781589 286.0634123 104.3409268 286.67975955 105.55023193 287.30343628 C107.2558391 288.18176636 108.97542014 289.03279498 110.6953125 289.8828125 C111.69320801 290.38699707 112.69110352 290.89118164 113.71923828 291.41064453 C117.42524891 292.48115911 119.14050444 291.78069231 122.625 290.25 C123.27573486 289.96527832 123.92646973 289.68055664 124.59692383 289.38720703 C157.42342599 272.74993944 187.116097 247.82021789 199.09375 211.984375 C199.54977701 210.53377479 199.99790223 209.08066322 200.4375 207.625 C200.63255127 206.98127441 200.82760254 206.33754883 201.02856445 205.67431641 C204.1004772 194.77695325 204.991575 183.78129901 204.9375 172.5 C204.93258545 171.27643799 204.9276709 170.05287598 204.92260742 168.79223633 C204.48141113 134.55314149 189.29970486 104.77151539 165.26953125 80.859375 C121.01245189 38.05148816 56.45400918 19.28119347 -4.03125 19.046875 C-5.21303833 19.04117493 -6.39482666 19.03547485 -7.61242676 19.02960205 C-10.10668053 19.02020974 -12.6009464 19.01364122 -15.09521484 19.00976562 C-18.8098078 19.00016843 -22.52382018 18.96913347 -26.23828125 18.9375 C-75.78961382 18.7179015 -124.47455226 28.86378018 -168.375 52.25 Z M-43.421875 139.703125 C-52.95935989 152.66432241 -56.14871279 167.67005379 -53.91015625 183.546875 C-51.40258469 195.95119346 -45.75622186 205.87728425 -37.375 215.25 C-36.37533203 216.37341797 -36.37533203 216.37341797 -35.35546875 217.51953125 C-22.10868114 231.55277007 -0.23663219 246.46799372 18.875 250.3125 C23.662328 250.2327112 26.78519492 249.08292286 30.625 246.25 C35.52613467 240.44602474 36.77881709 233.89220916 37.2578125 226.4609375 C37.38349609 224.55248047 37.38349609 224.55248047 37.51171875 222.60546875 C37.59035156 221.29191406 37.66898438 219.97835937 37.75 218.625 C37.87955078 216.68947266 37.87955078 216.68947266 38.01171875 214.71484375 C39.70036473 188.09856666 39.92557044 156.93840835 21.8125 135.3125 C13.56329244 126.72756887 3.91695331 120.81216633 -8.0625 120 C-22.32071923 120.24121048 -34.60671415 129.13839024 -43.421875 139.703125 Z M-68.0625 461.375 C-73.46747346 468.09469674 -75.18833686 475.8323562 -76.5625 484.1875 C-76.72685547 485.11240234 -76.89121094 486.03730469 -77.06054688 486.99023438 C-82.83544843 520.35373448 -81.98321873 559.06374952 -62.22998047 587.92285156 C-51.31314586 602.98526197 -35.59945683 612.86585011 -17.375 616.25 C-13.19625703 616.63292053 -9.06880991 616.67188732 -4.875 616.625 C-3.83730469 616.63660156 -2.79960938 616.64820313 -1.73046875 616.66015625 C15.54700307 616.59560779 30.74443028 610.3153341 42.93359375 598.140625 C55.20939229 584.95616794 61.31972477 570.0783507 62 552.125 C61.30954135 535.60922915 54.58067052 521.41806867 43.625 509.25 C43.11839844 508.6621875 42.61179687 508.074375 42.08984375 507.46875 C21.13709703 484.7476129 -24.59484276 459.14376638 -55.375 455.9375 C-60.41571706 456.46257469 -64.10707577 458.24745526 -68.0625 461.375 Z " fill="#000000" transform="translate(529.375,165.75)"/>
</svg>
