<?xml version="1.0" encoding="UTF-8"?>
<svg version="1.1" xmlns="http://www.w3.org/2000/svg" width="512" height="512">
<path d="M0 0 C1.29118557 -0.00538554 2.58237114 -0.01077108 3.91268355 -0.01631981 C7.47182413 -0.03070085 11.0307317 -0.02655292 14.58988464 -0.019153 C18.43796609 -0.01440535 22.28599828 -0.0269452 26.13406372 -0.03717041 C33.66292536 -0.05433221 41.19170344 -0.05520392 48.72057956 -0.04995751 C54.84201365 -0.0459099 60.96342311 -0.04736636 67.08485603 -0.05270576 C68.39358098 -0.0538284 68.39358098 -0.0538284 69.72874482 -0.05497371 C71.50139845 -0.05650524 73.27405206 -0.05804359 75.04670567 -0.05958868 C91.655375 -0.07330409 108.26399717 -0.06788264 124.87266541 -0.05640347 C140.05451598 -0.04647075 155.23624468 -0.05941413 170.41807645 -0.08333766 C186.02280007 -0.10774155 201.62746695 -0.11733344 217.23220927 -0.11068493 C225.98671009 -0.10719575 234.7411172 -0.10940494 243.49560356 -0.12693596 C250.94751132 -0.14167402 258.39925935 -0.14227239 265.85116404 -0.12486505 C269.65007119 -0.11636608 273.44869319 -0.11417822 277.2475853 -0.1295166 C281.37288775 -0.14596618 285.49750533 -0.13118628 289.62280273 -0.11352539 C290.81347994 -0.1231304 292.00415715 -0.1327354 293.23091549 -0.14263147 C306.23184146 -0.02834908 316.34685327 4.46129635 325.87879944 13.23143005 C337.9743543 25.98009263 338.17384279 41.96689348 338.12886047 58.49278259 C338.13116686 60.33807323 338.13434458 62.18336295 338.13831496 64.02865076 C338.14664712 69.08327974 338.14254485 74.13783299 338.13634253 79.19246221 C338.13181259 84.64992992 338.13880449 90.10738472 338.14430237 95.56484985 C338.15319221 106.24968678 338.15127617 116.9344956 338.14547709 127.61933362 C338.140959 136.30369953 338.14034833 144.98805757 338.14252472 153.67242432 C338.14283119 154.90876866 338.14313765 156.14511301 338.1434534 157.41892233 C338.14409286 159.93058868 338.14474129 162.44225503 338.14539859 164.95392138 C338.15093816 187.83063931 338.14519492 210.70734453 338.13471339 233.58405975 C338.12522255 254.45724738 338.12607182 275.33041061 338.13563538 296.20359802 C338.14635013 319.66765761 338.15055137 343.13170556 338.14441085 366.5957675 C338.14377376 369.09815693 338.14314501 371.60054636 338.14252472 374.10293579 C338.14221617 375.33413608 338.14190762 376.56533637 338.14158972 377.83384576 C338.13986339 386.50705204 338.14277654 395.18024965 338.14748383 403.85345459 C338.15309492 414.4242124 338.15157137 424.99494051 338.14092234 435.56569493 C338.13566874 440.95827947 338.13360363 446.3508145 338.14022064 451.74339867 C338.14618857 456.68171952 338.14289098 461.61994505 338.13226554 466.55825728 C338.1300351 468.34278033 338.13115978 470.12731146 338.13601711 471.91182929 C338.20156068 497.9966023 338.20156068 497.9966023 329.09754944 507.1806488 C323.17556713 512.45158866 318.37336867 512.81677092 310.49989319 512.7118988 C300.09339681 511.78114536 292.96538987 504.39385578 285.46669006 497.77342224 C283.09167397 495.70584688 280.63994218 493.73718984 278.18739319 491.76268005 C273.78762822 488.18428944 269.57907886 484.43937188 265.38661194 480.62205505 C262.87338087 478.38633473 260.3017784 476.25390324 257.68739319 474.13768005 C252.54794891 469.97683236 247.55163167 465.67033516 242.56581116 461.32835388 C238.50706062 457.7960801 234.42604037 454.29335149 230.31239319 450.82518005 C225.81506957 447.03353516 221.3372752 443.22039703 216.87489319 439.38768005 C212.38995799 435.53629068 207.89194783 431.70134905 203.37489319 427.88768005 C198.85783673 424.07400952 194.36000215 420.23886885 189.87489319 416.38768005 C183.7455565 411.12753611 177.60479384 405.88168369 171.41981506 400.68699646 C169.88600353 399.39702412 168.35698975 398.10135419 166.82801819 396.8056488 C165.87411194 396.00771912 164.92020569 395.20978943 163.93739319 394.38768005 C163.10336975 393.68643005 162.26934631 392.98518005 161.41004944 392.26268005 C155.19137533 387.66335252 149.51650455 386.22803636 141.87489319 386.38768005 C131.07552607 388.17599969 123.49162161 396.51993748 115.57557678 403.4360199 C111.89262298 406.65347025 108.17820005 409.8120612 104.37489319 412.88768005 C99.34140778 416.96525132 94.4515601 421.1927392 89.56678772 425.44578552 C83.91069947 430.36780097 78.19720971 435.21840139 72.46327209 440.04930115 C69.78580366 442.30535432 67.11116362 444.56474611 64.43739319 446.82518005 C63.63881897 447.50000427 63.63881897 447.50000427 62.82411194 448.1884613 C59.38268314 451.10043952 55.95818277 454.03139272 52.54090881 456.97166443 C47.88307393 460.97933261 43.21185683 464.95609619 38.43739319 468.82518005 C33.387149 472.92618598 28.47538577 477.1724814 23.56922913 481.44334412 C18.41712862 485.92627277 13.23005075 490.36401059 7.99598694 494.7509613 C5.89857206 496.51111658 3.83334381 498.30112395 1.78504944 500.1181488 C-7.80351215 508.54557752 -15.81192429 513.35512718 -28.88682556 512.7978363 C-35.48694252 511.96187457 -39.30111939 509.75836989 -43.43760681 504.57518005 C-48.81333936 496.70148482 -50.28054583 489.17294816 -50.25653458 479.70194817 C-50.25858721 478.94391722 -50.26063984 478.18588628 -50.26275468 477.4048847 C-50.26841366 474.86225802 -50.26696879 472.31968569 -50.26554871 469.77705383 C-50.26813297 467.93664142 -50.27114631 466.09622956 -50.27455211 464.25581849 C-50.28261812 459.19603564 -50.28441146 454.13626699 -50.28514957 449.07647848 C-50.28700082 443.62026686 -50.29454852 438.16406259 -50.30128479 432.70785522 C-50.3148658 420.77596815 -50.32089247 408.84408443 -50.32529545 396.91219091 C-50.32805825 389.46156715 -50.33229568 382.01094469 -50.33679962 374.56032181 C-50.34899197 353.93086516 -50.35929136 333.30140956 -50.36267471 312.67194939 C-50.36289634 311.33832034 -50.36311813 310.00469129 -50.36334006 308.67106224 C-50.3635607 307.33424644 -50.36378119 305.99743064 -50.36400151 304.66061485 C-50.36444406 301.97881627 -50.36489118 299.29701769 -50.36534119 296.61521912 C-50.36545058 295.95029086 -50.36555997 295.2853626 -50.36567267 294.600285 C-50.36930264 273.04393633 -50.38522101 251.4876213 -50.40853155 229.93128551 C-50.4331421 207.13100648 -50.4468414 184.33074395 -50.44804263 161.53045094 C-50.44895923 149.10549079 -50.4547077 136.68057469 -50.47286224 124.25562668 C-50.48826708 113.6753085 -50.4933814 103.09504799 -50.48512414 92.51472072 C-50.48121903 87.1178388 -50.48214057 81.72107301 -50.49618149 76.3242054 C-50.50892843 71.379419 -50.50771582 66.43483589 -50.49559078 61.49004973 C-50.49363517 59.70536864 -50.49670588 57.92067311 -50.50543514 56.1360123 C-50.58251731 39.30540736 -48.57660468 25.46304663 -36.67979431 12.78611755 C-25.82541032 2.59561026 -14.5129201 -0.07311822 0 0 Z M115.87489319 134.38768005 C115.87489319 154.84768005 115.87489319 175.30768005 115.87489319 196.38768005 C99.04489319 196.38768005 82.21489319 196.38768005 64.87489319 196.38768005 C64.87489319 212.22768005 64.87489319 228.06768005 64.87489319 244.38768005 C81.70489319 244.38768005 98.53489319 244.38768005 115.87489319 244.38768005 C115.87489319 262.53768005 115.87489319 280.68768005 115.87489319 299.38768005 C134.02489319 299.38768005 152.17489319 299.38768005 170.87489319 299.38768005 C170.87489319 281.23768005 170.87489319 263.08768005 170.87489319 244.38768005 C189.02489319 244.38768005 207.17489319 244.38768005 225.87489319 244.38768005 C225.87489319 228.54768005 225.87489319 212.70768005 225.87489319 196.38768005 C207.72489319 196.38768005 189.57489319 196.38768005 170.87489319 196.38768005 C170.87489319 175.92768005 170.87489319 155.46768005 170.87489319 134.38768005 C152.72489319 134.38768005 134.57489319 134.38768005 115.87489319 134.38768005 Z " fill="#000000" transform="translate(112.12510681152344,-0.3876800537109375)"/>
</svg>
